# xmcd
#
# Track frame offsets:
#	150
#	13017
#	25580
#	36854
#	47014
#	60164
#	69991
#	80500
#	92315
#	105187
#	116488
#	133443
#	144762
#	155408
#	166691
#	177480
#	187514
#	196190
#	206851
#	217769
#	226899
#	237326
#
# Disc length: 3339 seconds
#
# Revision: 0
# Processed by: cddbd v1.5.2PL0 Copyright (c) Steve Scherf et al.
# Submitted via: EZCDAudioConverter 7.0.5.1
#
DISCID=0b0d0916
DTITLE=Tommy Cash - Six White Horses and Rise And Shine
DYEAR=1970
DGENRE=Country
TTITLE0=Six White Horses
TTITLE1=I'm So Afraid Of Losing You
TTITLE2=The Long BlackVeil
TTITLE3=The Ramblin' Kind
TTITLE4=Green, Green Grass Of Home
TTITLE5=Rise And Shine
TTITLE6=Okie From Muskogee
TTITLE7=I Owe The World To You
TTITLE8=Don't Hold Your Breath
TTITLE9=Top Of The Town
TTITLE10=So, You're Tired Of America?
TTITLE11=One Song Away
TTITLE12=Rise And Shine
TTITLE13=The Tears On Lincoln's Face
TTITLE14=Silver Wings
TTITLE15=Irma Jackson
TTITLE16=The Honest Truth
TTITLE17=A Free Man
TTITLE18=Memory Town
TTITLE19=Do What You Do, Do Well
TTITLE20=Carried Away
TTITLE21=The Fightin' Side Of Me
EXTD=
EXTT0=
EXTT1=
EXTT2=
EXTT3=
EXTT4=
EXTT5=
EXTT6=
EXTT7=
EXTT8=
EXTT9=
EXTT10=
EXTT11=
EXTT12=
EXTT13=
EXTT14=
EXTT15=
EXTT16=
EXTT17=
EXTT18=
EXTT19=
EXTT20=
EXTT21=
PLAYORDER=
